# xmcd
#
# Track frame offsets:
#	150
#	5553
#	22310
#	40699
#	48075
#	64775
#	80346
#	99979
#	120625
#	136469
#	154942
#	175768
#	190532
#	208278
#	217127
#	233599
#	249233
#	266799
#	286912
#
# Disc length: 4051 seconds
#
# Revision: 0
# Processed by: cddbd v1.5.1PL0 Copyright (c) Steve Scherf et al.
# Submitted via: EasyCDDAExtractor 8.2.3.1
#
DISCID=090fd113
DTITLE=50 Cent - Power Of The Dollar
DYEAR=1999
DGENRE=Hip-Hop
TTITLE0=Intro
TTITLE1=Trace This
TTITLE2=Keep Ya Eyes On Your
TTITLE3=Corner Bodega (Coke Spot)
TTITLE4=Your Life's On The Line
TTITLE5=That Ain't Gangsta
TTITLE6=Money Makes The World Go Round
TTITLE7=Ghetto Quran
TTITLE8=The Repercussions
TTITLE9=It Ain't Easy (Featuring Noreaga)
TTITLE10=What Makes You Want Me
TTITLE11=Thug Love (Featuring Destiny's Child)
TTITLE12=Slow Doe
TTITLE13=Gun Runner
TTITLE14=You Ain't Gangsta
TTITLE15=Power Of The Dollar
TTITLE16=I'm A Hustler
TTITLE17=How To Rob (Featuring Madd Rapper)
TTITLE18=Jerk (Featuring Next)
EXTD=
EXTT0=
EXTT1=
EXTT2=
EXTT3=
EXTT4=
EXTT5=
EXTT6=
EXTT7=
EXTT8=
EXTT9=
EXTT10=
EXTT11=
EXTT12=
EXTT13=
EXTT14=
EXTT15=
EXTT16=
EXTT17=
EXTT18=
PLAYORDER=
